<?xml version="1.0" encoding="UTF-8"?><svg id="uuid-e9153f2f-4dde-49de-a59b-dca5b17fc4f2" xmlns="http://www.w3.org/2000/svg" viewBox="0 0 256 256"><g><path d="M25.25,256.75v-63.75c0-26.8857,27.9473-51.0205,69.5435-60.0557,11.2539-2.4512,23.0991-3.6943,35.2065-3.6943,10.9941,0,21.8252,1.0352,32.1924,3.0752,43.3984,8.5215,72.5576,32.9053,72.5576,60.6748v63.75H25.25Z" style="fill:#303033;"/><path d="M130,129.5c10.9786,0,21.7932,1.0331,32.1437,3.0706,20.8971,4.1032,38.8753,11.9805,51.991,22.7804,13.3231,10.9706,20.3653,23.9895,20.3653,37.649v63.5H25.5v-63.5c0-26.7652,27.8681-50.8016,69.3464-59.8114,11.2383-2.4476,23.0657-3.6886,35.1536-3.6886m0-.5c-12.37,0-24.24,1.3-35.26,3.7-40.65,8.83-69.74,32.49-69.74,60.3v64H235v-64c0-28.49-30.54-52.63-72.76-60.9201-10.16-2-20.99-3.0799-32.24-3.0799h0Z" style="fill:#bdccd4;"/></g><g><path d="M94.7852,132.4346c-19.123-11.7017-30.5352-32.043-30.5352-54.4346,0-35.1519,28.5981-63.75,63.75-63.75s63.75,28.5981,63.75,63.75c0,21.9316-11.0488,42.042-29.5596,53.8154-10.3691-2.0342-21.1982-3.0654-32.1904-3.0654-12.1084,0-23.9551,1.2393-35.2148,3.6846Z" style="fill:#303033;"/><path d="M128,14.5c35.014,0,63.5,28.486,63.5,63.5,0,21.8121-10.9723,41.8161-29.3598,53.5508-10.354-2.0244-21.1664-3.0509-32.1402-3.0509-12.0889,0-23.9208,1.2344-35.1701,3.6688-9.0624-5.5664-16.6453-13.3753-21.9376-22.594-5.4903-9.5638-8.3924-20.4822-8.3924-31.5748,0-35.014,28.486-63.5,63.5-63.5m0-.5c-35.35,0-64,28.65-64,64,0,23.17,12.31,43.4599,30.74,54.7,11.02-2.4,22.89-3.7,35.26-3.7,11.25,0,22.08,1.08,32.24,3.08,17.89-11.34,29.76-31.3199,29.76-54.0799,0-35.3501-28.65-64-64-64h0Z" style="fill:#ababad;"/></g></svg>